<svg width="310" height="132" viewBox="0 0 310 132" fill="none" xmlns="http://www.w3.org/2000/svg">
<path d="M108.123 86.5981C108.123 86.5981 144.496 106.098 144.496 128.098C144.496 106.098 207.496 86.5981 207.496 86.5981" stroke="#FF7FE3" stroke-width="6" stroke-linecap="round" stroke-linejoin="round"/>
<path d="M3.95777 29.8751C3.9941 28.8838 4.18914 27.9303 4.54291 27.0146C4.92865 26.1001 5.42339 25.2697 6.02713 24.5233C6.66401 23.7461 7.40872 23.0849 8.26125 22.5398C9.11379 21.9946 10.0398 21.6283 11.0394 21.4408L17.232 20.2267L17.3603 16.7251L23.3083 16.943L22.6632 34.5472C22.6422 35.1228 22.8632 35.6433 23.3265 36.1085C23.7898 36.5738 24.3412 36.8182 24.9808 36.8416L26.4198 36.8943C26.8675 36.9107 27.0832 37.1428 27.0668 37.5905L26.8594 43.2507C26.8523 43.4425 26.7665 43.5995 26.602 43.7216C26.4693 43.8448 26.3231 43.9035 26.1632 43.8976L24.7242 43.8449C23.0613 43.784 21.6529 43.3321 20.499 42.4893C19.3782 41.6156 18.4587 40.4932 17.7404 39.122C17.3142 39.3946 16.7623 39.5985 16.0849 39.7338C15.4407 39.8383 14.8467 39.8806 14.3031 39.8606L10.1778 39.7095C9.31442 39.6778 8.48943 39.4715 7.70285 39.0904C6.91628 38.7094 6.22974 38.2199 5.64324 37.622C5.05791 36.9922 4.60401 36.2711 4.28154 35.4587C3.95907 34.6464 3.81365 33.8085 3.84529 32.9451L3.95777 29.8751ZM16.9982 26.6064L12.4506 27.4965C11.708 27.6614 11.1024 28.0235 10.6336 28.5827C10.1648 29.1419 9.91633 29.8053 9.88821 30.5727L9.81087 32.6833L16.7662 32.9382L16.9982 26.6064ZM29.2941 20.5726L41.5027 7.23471L44.1829 10.1188L32.2762 23.0835L29.2941 20.5726ZM69.106 36.4891C69.0861 37.0327 69.245 37.5028 69.5827 37.8995C69.9524 38.2973 70.4091 38.5061 70.9527 38.5261L74.3104 38.6491C74.5023 38.6561 74.6593 38.7419 74.7813 38.9065C74.9046 39.0391 74.9632 39.1853 74.9574 39.3452L74.7979 45.0072C74.7909 45.1991 74.7051 45.356 74.5405 45.4781C74.4079 45.6013 74.2457 45.6594 74.0538 45.6524L71.7034 45.5663C70.6161 45.5264 69.5839 45.2965 68.6066 44.8764C67.6613 44.4575 66.8006 43.9136 66.0246 43.2448C65.2337 43.8562 64.3355 44.3357 63.3301 44.6831C62.3567 45.0317 61.3424 45.1866 60.2871 45.148L26.1819 43.8983C25.7342 43.8819 25.5186 43.6498 25.535 43.2022L25.7424 37.5419C25.7483 37.3821 25.8175 37.2405 25.9501 37.1173C26.0519 36.9609 26.2147 36.8868 26.4386 36.895L61.6469 38.1851C61.9987 38.198 62.3238 38.0658 62.6221 37.7885C62.9524 37.5124 63.1258 37.1505 63.1422 36.7028L63.267 33.2971C63.2846 32.8174 63.1233 32.4113 62.7833 32.0786C62.4764 31.7151 62.0991 31.5252 61.6514 31.5088L37.4756 30.6229L33.3559 26.3892L48.5638 9.84702L52.6888 13.9368L43.2292 24.3494L61.2651 25.0103C62.4163 25.0524 63.4794 25.3155 64.4543 25.7996C65.4304 26.2516 66.2722 26.8749 66.9796 27.6693C67.7201 28.4329 68.2795 29.334 68.6577 30.3726C69.0691 31.3803 69.2537 32.4598 69.2115 33.611L69.106 36.4891ZM74.7565 51.442L80.7046 51.6599L80.4849 57.6559L74.5368 57.438L74.7565 51.442ZM83.1989 51.7513L89.1949 51.971L88.9752 57.967L82.9792 57.7473L83.1989 51.7513ZM86.8802 39.1097C87.4239 39.1296 87.878 38.9701 88.2427 38.6312C88.6405 38.2615 88.8493 37.8049 88.8693 37.2612L89.2489 26.9002L95.1969 27.1181L94.819 37.4312C94.7733 38.6784 94.4907 39.8368 93.9712 40.9065C93.4837 41.9774 92.8089 42.9133 91.947 43.7143C91.1183 44.4844 90.1515 45.0894 89.0466 45.5293C87.943 45.9371 86.7675 46.1182 85.5204 46.0725L74.0561 45.6525C73.8642 45.6454 73.7066 45.5756 73.5834 45.443C73.4614 45.2784 73.4033 45.1162 73.4091 44.9563L73.613 39.392C73.62 39.2002 73.6904 39.0266 73.8242 38.8714C73.958 38.7162 74.1208 38.6421 74.3127 38.6492L86.8802 39.1097ZM105.892 46.819C104.965 46.785 104.092 46.5769 103.274 46.1947C102.455 45.8124 101.753 45.3064 101.168 44.6765C100.584 44.0147 100.13 43.2776 99.8078 42.4653C99.4865 41.6209 99.3428 40.7351 99.3768 39.8077L99.6194 33.1881L104.656 33.3727L104.457 38.7931C104.447 39.0809 104.534 39.3242 104.719 39.5231C104.905 39.69 105.126 39.7782 105.382 39.7876L113.344 40.0793C113.888 40.0992 114.372 40.0049 114.796 39.7963C115.253 39.5569 115.6 39.2494 115.838 38.8738C116.077 38.4663 116.205 38.0227 116.223 37.543C116.274 37.0326 116.164 36.5322 115.894 36.042L110.199 24.978L115.355 21.9008L121.411 33.6024C122.188 35.1038 122.499 36.6683 122.344 38.2957C122.221 39.8922 121.767 41.3646 120.981 42.7127C120.196 44.0289 119.116 45.11 117.74 45.9562C116.365 46.7704 114.814 47.1459 113.088 47.0826L105.892 46.819ZM127.797 60.0619L126.178 54.4309L133.557 52.2996C134.69 51.9569 135.626 51.3187 136.365 50.3852C137.103 49.4516 137.495 48.3772 137.539 47.162L138.163 30.1334L144.111 30.3514L143.509 46.8044C143.461 48.1155 143.207 49.355 142.748 50.523C142.321 51.6921 141.721 52.7589 140.95 53.7233C140.209 54.7208 139.313 55.5686 138.263 56.2666C137.243 56.9978 136.118 57.5489 134.888 57.9201L127.797 60.0619ZM138.339 20.1011L144.335 20.3208L144.115 26.3168L138.119 26.0971L138.339 20.1011ZM167.694 47.6905C167.646 49.0017 167.409 50.2418 166.982 51.4109C166.554 52.6121 165.953 53.6948 165.182 54.6592C164.441 55.6567 163.544 56.5205 162.493 57.2505C161.473 57.9817 160.333 58.5323 159.07 58.9023L151.979 61.0441L150.41 55.3668L157.597 53.2285C158.73 52.8858 159.68 52.2962 160.448 51.4597C161.214 50.6552 161.619 49.6454 161.663 48.4302L161.672 48.1904C161.28 48.4002 160.794 48.5585 160.214 48.6653C159.635 48.7401 159.073 48.7676 158.53 48.7477L155.891 48.651C154.644 48.6053 153.502 48.3073 152.466 47.757C151.462 47.1758 150.609 46.4401 149.905 45.5497C149.234 44.6285 148.759 43.6025 148.481 42.4715C148.234 41.3417 148.244 40.1893 148.511 39.0143L149.488 34.6311C149.682 33.7096 150.033 32.8739 150.541 32.124C151.049 31.3741 151.649 30.7236 152.342 30.1726C153.066 29.6228 153.866 29.2038 154.741 28.9157C155.616 28.6275 156.518 28.5004 157.445 28.5344L160.131 28.6328C161.282 28.675 162.346 28.9381 163.32 29.4221C164.297 29.8742 165.138 30.4974 165.846 31.2919C166.586 32.0555 167.146 32.9566 167.524 33.9951C167.935 35.0029 168.12 36.0823 168.078 37.2336L167.694 47.6905ZM161.952 41.8604L162.131 36.9677C162.145 36.5839 162.014 36.2429 161.737 35.9445C161.491 35.6473 161.161 35.4751 160.747 35.4279L156.622 35.2768C155.918 35.251 155.44 35.6337 155.187 36.425L154.277 40.2823C154.201 40.5997 154.27 40.9064 154.483 41.2024C154.698 41.4665 154.981 41.6049 155.333 41.6178L161.952 41.8604ZM169.581 61.593L167.964 55.9139L175.341 53.8307C176.474 53.4879 177.41 52.8498 178.149 51.9162C178.888 50.9826 179.279 49.9082 179.324 48.6931L179.95 31.6165L185.898 31.8345L185.295 48.2874C185.247 49.5985 184.993 50.8381 184.534 52.0061C184.106 53.2072 183.506 54.2899 182.734 55.2543C181.993 56.2519 181.097 57.0996 180.047 57.7976C179.028 58.5288 177.903 59.08 176.672 59.4512L169.581 61.593ZM219.223 43.9588L220.662 44.0116C220.822 44.0174 220.963 44.1026 221.085 44.2672C221.24 44.401 221.314 44.5638 221.307 44.7557L221.101 50.3679C221.095 50.5278 221.026 50.6854 220.892 50.8406C220.759 50.9638 220.597 51.0219 220.405 51.0149L219.446 50.9797C218.167 50.9328 217.04 50.6514 216.066 50.1354C215.093 49.6194 214.297 49.0619 213.678 48.4628C212.821 49.1359 211.857 49.6609 210.786 50.038C209.748 50.4162 208.621 50.5831 207.406 50.5386L201.218 50.3118C200.291 50.2778 199.418 50.0697 198.599 49.6875C197.813 49.3065 197.127 48.801 196.541 48.1711C195.957 47.5093 195.504 46.7722 195.181 45.9599C194.86 45.1155 194.716 44.2297 194.75 43.3023L194.993 36.6827L199.982 36.8655L199.785 42.2379C199.774 42.5257 199.861 42.7691 200.046 42.968C200.231 43.1669 200.467 43.2716 200.755 43.2822L207.758 43.5388C208.622 43.5704 209.336 43.2924 209.902 42.7047C210.469 42.0851 210.688 41.3566 210.559 40.5193L207.146 26.1767L212.881 24.3215L217.218 42.3003C217.33 42.7527 217.571 43.1458 217.943 43.4797C218.317 43.7815 218.743 43.9413 219.223 43.9588ZM228.58 29.5078L234.576 29.7275L234.796 23.7315L228.8 23.5118L228.58 29.5078ZM239.607 51.046C239.601 51.2059 239.531 51.3634 239.398 51.5186C239.265 51.6419 239.103 51.7 238.911 51.6929L235.026 51.5506C234.034 51.5142 233.052 51.2381 232.078 50.7221C231.136 50.2073 230.441 49.5253 229.991 48.6763C229.353 49.4855 228.498 50.1106 227.425 50.5516C226.384 50.9938 225.352 51.1961 224.329 51.1586L220.395 51.0145C220.235 51.0086 220.094 50.9394 219.971 50.8068C219.815 50.673 219.741 50.5102 219.748 50.3183L219.954 44.7061C219.961 44.5142 220.047 44.3573 220.211 44.2352C220.345 44.08 220.492 44.0053 220.652 44.0112L225.161 44.1764C225.705 44.1963 226.19 44.054 226.618 43.7495C227.046 43.4129 227.318 42.9746 227.434 42.4345L229.635 33.4851L235.401 34.753L233.636 42.2775C233.486 42.8804 233.579 43.4121 233.914 43.8727C234.25 44.3013 234.723 44.5268 235.33 44.549L239.168 44.6896C239.359 44.6967 239.516 44.7825 239.638 44.947C239.762 45.0796 239.82 45.2419 239.813 45.4338L239.607 51.046ZM247.438 63.7733L253.434 63.993L253.654 57.997L247.658 57.7773L247.438 63.7733ZM255.928 64.0844L261.924 64.3041L262.144 58.3081L256.148 58.0884L255.928 64.0844ZM251.278 71.6952L257.274 71.9149L257.494 65.9189L251.498 65.6992L251.278 71.6952ZM238.457 45.3841C238.463 45.2242 238.549 45.0672 238.715 44.9132C238.848 44.758 238.995 44.6833 239.155 44.6892L248.221 45.0214C249.532 45.0694 250.819 44.9084 252.081 44.5384C253.376 44.1695 254.472 43.5213 255.371 42.5935L257.772 39.9917C257.839 39.8981 257.906 39.8205 257.972 39.7589C258.039 39.6973 258.105 39.6357 258.171 39.5741C258.236 39.5444 258.286 39.4982 258.32 39.4354L248.736 36.2023C248.484 36.097 248.26 36.1048 248.063 36.2257C247.868 36.3146 247.734 36.4698 247.662 36.6913L245.656 41.6132L240.575 40.034L242.037 35.5245C242.395 34.481 242.908 33.6031 243.574 32.8911C244.274 32.1482 245.047 31.5841 245.894 31.1989C246.772 30.8148 247.677 30.6078 248.606 30.5778C249.537 30.5158 250.43 30.6286 251.284 30.916L270.308 37.377L268.427 42.8318L265.865 41.9694C265.135 41.7825 264.56 41.7454 264.14 41.8581C263.751 41.972 263.325 42.2446 262.861 42.6758L257.373 48.2386C255.976 49.6604 254.307 50.656 252.365 51.2253C250.423 51.7945 248.444 52.0422 246.43 51.9684L238.899 51.6925C238.451 51.6761 238.235 51.444 238.252 50.9963L238.457 45.3841ZM289.454 52.8724C289.438 53.3201 289.206 53.5358 288.758 53.5194L287.319 53.4667C286.104 53.4221 284.961 53.1561 283.89 52.6686C282.852 52.1502 281.948 51.4927 281.176 50.6959C280.406 49.8671 279.801 48.9163 279.36 47.8434C278.952 46.7398 278.77 45.5803 278.815 44.3652L279.713 19.8536L285.661 20.0715L284.768 44.4392C284.748 44.9828 284.907 45.453 285.245 45.8496C285.615 46.2154 286.073 46.4083 286.616 46.4282L289.015 46.5161C289.207 46.5231 289.364 46.6089 289.486 46.7735C289.609 46.9061 289.667 47.0683 289.66 47.2602L289.454 52.8724ZM297.919 46.8423C298.462 46.8623 298.917 46.7028 299.281 46.3639C299.679 45.9942 299.888 45.5376 299.908 44.9939L300.287 34.6329L306.235 34.8508L305.858 45.1639C305.812 46.4111 305.529 47.5695 305.01 48.6392C304.522 49.7101 303.847 50.646 302.986 51.447C302.157 52.2171 301.19 52.8221 300.085 53.262C298.981 53.6698 297.806 53.8509 296.559 53.8052L288.74 53.5187C288.548 53.5117 288.391 53.4419 288.267 53.3093C288.145 53.1447 288.087 52.9825 288.093 52.8226L288.297 47.2583C288.304 47.0664 288.374 46.8929 288.508 46.7377C288.642 46.5825 288.805 46.5084 288.997 46.5154L297.919 46.8423ZM291.941 30.3884L297.937 30.6081L298.157 24.6122L292.161 24.3925L291.941 30.3884ZM300.432 30.6995L306.428 30.9192L306.647 24.9232L300.651 24.7035L300.432 30.6995Z" fill="#FF7FE3"/>
</svg>
