<svg width="130" height="128" viewBox="0 0 130 128" fill="none" xmlns="http://www.w3.org/2000/svg">
<path d="M18.1836 83.3027C18.1836 83.3027 54.5566 102.803 54.5566 124.803C54.5566 102.803 117.557 83.3027 117.557 83.3027" stroke="#FF7FE3" stroke-width="6" stroke-linecap="round" stroke-linejoin="round"/>
<path d="M30.272 35.9307C31.6034 36.2997 32.6655 37.0271 33.4582 38.1129C34.251 39.1986 34.6216 40.445 34.5701 41.8521L34.5121 43.435C34.4605 44.8421 34.1401 46.1592 33.5507 47.3865C32.9934 48.6149 32.234 49.6758 31.2727 50.5692C30.3113 51.4626 29.1971 52.1582 27.93 52.6562C26.6629 53.1541 25.3258 53.3773 23.9188 53.3258L14.3252 52.9742C12.7903 52.918 11.3618 52.5775 10.0398 51.9526C8.71775 51.3278 7.56384 50.485 6.57802 49.4242C5.62301 48.3965 4.8669 47.184 4.30969 45.7867C3.78329 44.4225 3.54821 42.9729 3.60446 41.4379L4.00695 30.4533L9.95496 30.6713L9.5841 40.7925C9.55833 41.496 9.66222 42.1562 9.89578 42.7732C10.1293 43.3902 10.4618 43.9307 10.8931 44.3948C11.3564 44.8601 11.8871 45.2318 12.4853 45.5099C13.0835 45.788 13.7184 45.9393 14.39 45.9639L24.8949 46.3488C25.8863 46.3851 26.7306 46.0638 27.4279 45.3849C28.1572 44.7072 28.54 43.8726 28.5764 42.8813L28.615 41.826L15.2059 38.1165L15.4185 32.3124C15.4666 31.0013 15.7355 29.7783 16.2254 28.6435C16.7153 27.5087 17.3604 26.5076 18.1607 25.6404C18.9941 24.7423 19.9656 24.0093 21.0751 23.4416C22.2167 22.875 23.4459 22.5358 24.7629 22.4239L31.8955 21.7727L32.662 28.3812L24.4706 29.0897C23.5385 29.1836 22.7564 29.5553 22.1242 30.2045C21.5252 30.823 21.2092 31.58 21.1764 32.4754L21.136 33.5786L30.272 35.9307ZM46.0966 44.628C45.1693 44.594 44.2963 44.3859 43.4777 44.0037C42.6592 43.6215 41.9573 43.1154 41.3719 42.4856C40.7878 41.8237 40.3345 41.0866 40.012 40.2743C39.6907 39.43 39.547 38.5441 39.581 37.6167L39.8236 30.9972L44.8602 31.1817L44.6616 36.6021C44.651 36.8899 44.7382 37.1332 44.923 37.3321C45.109 37.4991 45.3299 37.5872 45.5858 37.5966L53.5484 37.8883C54.0921 37.9083 54.5758 37.8139 54.9998 37.6053C55.4568 37.3659 55.8043 37.0584 56.0422 36.6828C56.2813 36.2753 56.4097 35.8317 56.4272 35.3521C56.478 34.8416 56.3682 34.3412 56.098 33.851L50.4033 22.787L55.5594 19.7098L61.615 31.4114C62.3925 32.9128 62.7035 34.4773 62.5478 36.1047C62.4252 37.7013 61.971 39.1736 61.1851 40.5217C60.4004 41.8379 59.3201 42.9191 57.9442 43.7652C56.5694 44.5794 55.0187 44.9549 53.2918 44.8916L46.0966 44.628ZM86.0227 44.698C85.9747 46.0091 85.7371 47.2493 85.31 48.4184C84.8818 49.6195 84.2817 50.7023 83.5099 51.6667C82.7689 52.6642 81.8726 53.528 80.8212 54.258C79.8017 54.9891 78.6608 55.5397 77.3984 55.9097L70.3072 58.0515L68.7381 52.3742L75.9252 50.236C77.0585 49.8932 78.0087 49.3036 78.7759 48.4672C79.5418 47.6627 79.9471 46.6528 79.9916 45.4377L80.0004 45.1978C79.6084 45.4076 79.1223 45.5659 78.542 45.6727C77.9629 45.7476 77.4015 45.775 76.8579 45.7551L74.2196 45.6585C72.9725 45.6128 71.8306 45.3148 70.7941 44.7644C69.7907 44.1833 68.9371 43.4475 68.2332 42.5572C67.5625 41.636 67.0877 40.6099 66.8089 39.479C66.5622 38.3492 66.5724 37.1968 66.8396 36.0218L67.8167 31.6386C68.0106 30.7171 68.3614 29.8814 68.8692 29.1315C69.377 28.3816 69.9772 27.7311 70.6699 27.1801C71.3945 26.6303 72.1944 26.2113 73.0695 25.9231C73.9447 25.635 74.8459 25.5079 75.7733 25.5419L78.4595 25.6403C79.6107 25.6825 80.6738 25.9456 81.6487 26.4296C82.6248 26.8816 83.4666 27.5049 84.174 28.2993C84.9145 29.0629 85.4739 29.964 85.8521 31.0026C86.2635 32.0103 86.4481 33.0898 86.4059 34.241L86.0227 44.698ZM80.2804 38.8678L80.4596 33.9751C80.4737 33.5914 80.3421 33.2503 80.0648 32.952C79.8196 32.6548 79.4896 32.4826 79.0751 32.4354L74.9499 32.2842C74.2463 32.2585 73.768 32.6412 73.5148 33.4325L72.605 37.2897C72.5293 37.6072 72.5981 37.9139 72.8114 38.2099C73.0259 38.4739 73.309 38.6124 73.6608 38.6253L80.2804 38.8678ZM104.18 28.7922L103.839 38.0979C103.821 38.5776 103.998 38.9844 104.37 39.3182C104.744 39.6201 105.17 39.7798 105.65 39.7974L109.103 39.9239C109.551 39.9403 109.767 40.1724 109.75 40.6201L109.543 46.2803C109.527 46.728 109.294 46.9436 108.847 46.9272L106.352 46.8358C105.873 46.8183 105.365 46.7036 104.828 46.4918C104.293 46.248 103.857 45.8958 103.522 45.4353L103.492 46.2507C103.446 47.4979 103.196 48.6575 102.74 49.7295C102.285 50.8015 101.673 51.7718 100.904 52.6402C100.168 53.5099 99.2918 54.2623 98.2759 54.8975C97.2587 55.5647 96.1516 56.0685 94.9543 56.4089L87.8649 58.5027L86.246 52.8717L93.6232 50.7884C94.7873 50.4788 95.7233 49.8407 96.4312 48.8739C97.171 47.9084 97.5632 46.818 97.6077 45.6028L98.2317 28.5742L104.18 28.7922ZM98.4036 18.6379L104.4 18.8576L104.18 24.8535L98.1839 24.6338L98.4036 18.6379ZM109.922 52.7305L115.918 52.9502L115.698 58.9462L109.702 58.7265L109.922 52.7305ZM118.016 40.2505C118.56 40.2704 119.014 40.1109 119.378 39.7721C119.776 39.4024 119.985 38.9457 120.005 38.4021L120.385 28.0411L126.333 28.259L125.955 38.5721C125.909 39.8192 125.627 40.9777 125.107 42.0474C124.619 43.1182 123.945 44.0541 123.083 44.8551C122.254 45.6253 121.287 46.2303 120.182 46.6701C119.079 47.078 117.903 47.2591 116.656 47.2134L108.837 46.9269C108.646 46.9199 108.488 46.85 108.365 46.7174C108.243 46.5529 108.185 46.3906 108.19 46.2307L108.394 40.6665C108.401 40.4746 108.472 40.3011 108.606 40.1459C108.739 39.9907 108.902 39.9166 109.094 39.9236L118.016 40.2505Z" fill="#FF7FE3"/>
</svg>
